<svg xmlns="http://www.w3.org/2000/svg" width="1200" height="360" viewBox="0 0 1200 360" role="img" aria-labelledby="title desc"><title id="title">Vibhansh Vats — Data Scientist and Machine Learning Engineer</title><desc id="desc">Light animated data profile banner.</desc><defs><linearGradient id="bg" x1="0" y1="0" x2="1" y2="1"><stop stop-color="#F8FAFC"/><stop offset=".55" stop-color="#ECFEFF"/><stop offset="1" stop-color="#F3E8FF"/></linearGradient><linearGradient id="line" x1="0" x2="1"><stop stop-color="#0891B2"/><stop offset=".5" stop-color="#7C3AED"/><stop offset="1" stop-color="#059669"/></linearGradient></defs><rect width="1200" height="360" rx="28" fill="url(#bg)"/><g opacity=".16" stroke="#0891B2"><path d="M0 60H1200M0 120H1200M0 180H1200M0 240H1200M0 300H1200"/><path d="M100 0V360M200 0V360M300 0V360M400 0V360M500 0V360M600 0V360M700 0V360M800 0V360M900 0V360M1000 0V360M1100 0V360"/></g><path d="M70 274L172 215L260 247L364 124L454 188L560 98L680 151L782 80L900 138L1012 72L1135 112" fill="none" stroke="url(#line)" stroke-width="3" stroke-dasharray="12 10" opacity=".75"><animate attributeName="stroke-dashoffset" values="0;-44" dur="3s" repeatCount="indefinite"/></path><g fill="#0891B2"><circle cx="172" cy="215" r="6"/><circle cx="364" cy="124" r="6"/><circle cx="560" cy="98" r="6"/><circle cx="782" cy="80" r="6"/><circle cx="1012" cy="72" r="6"/></g><text x="70" y="105" fill="#475569" font-family="monospace" font-size="18" letter-spacing="4">HELLO, I'M</text><text x="70" y="170" fill="#0F172A" font-family="Arial, sans-serif" font-weight="800" font-size="58">VIBHANSH VATS</text><rect x="70" y="198" width="590" height="4" rx="2" fill="url(#line)"/><text x="70" y="240" fill="#0891B2" font-family="monospace" font-size="24">DATA SCIENTIST  ·  ML ENGINEER</text><text x="70" y="312" fill="#475569" font-family="monospace" font-size="17">DATA → INSIGHT → MODEL → IMPACT</text></svg>